<svg width="500" height="349" viewBox="0 0 500 349" fill="none" xmlns="http://www.w3.org/2000/svg">
<path d="M0 150C0 67.1573 67.1573 0 150 0H350C432.843 0 500 67.1573 500 150V199C500 281.843 432.843 349 350 349H0V150Z" fill="#9ED3BA"/>
<path d="M373.392 59.0932L364.35 72.432L364.221 72.6223L364.282 72.8441L368.522 88.3904L355.183 79.349L354.993 79.22L354.771 79.2805L339.225 83.521L348.266 70.1823L348.395 69.992L348.335 69.7702L344.094 54.2239L357.433 63.2652L357.623 63.3942L357.845 63.3337L373.392 59.0932Z" stroke="black"/>
<path d="M453.543 146.609L453.641 146.852L453.898 146.909L462.615 148.851L461.376 157.696L461.339 157.956L461.533 158.134L468.111 164.174L462.615 171.214L462.454 171.421L462.533 171.672L465.209 180.192L456.93 183.541L456.687 183.64L456.629 183.896L454.687 192.613L445.843 191.374L445.583 191.338L445.405 191.531L439.364 198.109L432.324 192.614L432.117 192.452L431.867 192.531L423.346 195.208L419.997 186.928L419.899 186.685L419.642 186.628L410.925 184.686L412.164 175.841L412.201 175.581L412.007 175.403L405.429 169.363L410.925 162.323L411.086 162.116L411.007 161.865L408.331 153.345L416.61 149.996L416.854 149.897L416.911 149.641L418.853 140.924L427.697 142.163L427.957 142.199L428.135 142.006L434.176 135.428L441.216 140.923L441.423 141.085L441.673 141.006L450.194 138.329L453.543 146.609Z" stroke="black"/>
</svg>
