<svg width="117" height="27" viewBox="0 0 117 27" fill="none" xmlns="http://www.w3.org/2000/svg">
<path d="M39.6466 21.7408C38.5957 21.7408 37.6236 21.5701 36.7303 21.2285C35.8502 20.8738 35.0817 20.3812 34.4249 19.7507C33.7812 19.107 33.2755 18.3582 32.9077 17.5044C32.5398 16.6505 32.3559 15.7113 32.3559 14.6867C32.3559 13.662 32.5398 12.7228 32.9077 11.8689C33.2755 11.0151 33.7878 10.2729 34.4446 9.64234C35.1014 8.99866 35.8699 8.50605 36.75 8.16451C37.6433 7.80983 38.6154 7.63249 39.6663 7.63249C40.7303 7.63249 41.7089 7.8164 42.6022 8.18422C43.5086 8.53889 44.2771 9.07091 44.9076 9.78027L43.6268 11.0216C43.1014 10.4699 42.5103 10.0627 41.8534 9.79997C41.1966 9.52411 40.4938 9.38618 39.7451 9.38618C38.97 9.38618 38.2475 9.51755 37.5776 9.78027C36.9208 10.043 36.3494 10.4108 35.8633 10.8837C35.3773 11.3566 34.9963 11.9215 34.7205 12.5783C34.4577 13.222 34.3264 13.9248 34.3264 14.6867C34.3264 15.4486 34.4577 16.1579 34.7205 16.8147C34.9963 17.4584 35.3773 18.0167 35.8633 18.4896C36.3494 18.9625 36.9208 19.3303 37.5776 19.593C38.2475 19.8558 38.97 19.9871 39.7451 19.9871C40.4938 19.9871 41.1966 19.8558 41.8534 19.593C42.5103 19.3172 43.1014 18.8968 43.6268 18.332L44.9076 19.5733C44.2771 20.2827 43.5086 20.8213 42.6022 21.1891C41.7089 21.5569 40.7237 21.7408 39.6466 21.7408ZM45.1057 21.5832L51.352 7.79013L53.3028 7.79013L59.5688 21.5832L57.4998 21.5832L51.9235 8.89357L52.7116 8.89357L47.1353 21.5832L45.1057 21.5832ZM47.7658 18.1349L48.2979 16.5586L56.0614 16.5586L56.6328 18.1349L47.7658 18.1349ZM64.6783 21.5832L58.6094 7.79013L60.7375 7.79013L66.3138 20.5192L65.0921 20.5192L70.7079 7.79013L72.6783 7.79013L66.6291 21.5832L64.6783 21.5832ZM71.709 21.5832L77.9553 7.79013L79.906 7.79013L86.172 21.5832L84.103 21.5832L78.5267 8.89357L79.3149 8.89357L73.7385 21.5832L71.709 21.5832ZM74.3691 18.1349L74.9011 16.5586L82.6646 16.5586L83.236 18.1349L74.3691 18.1349ZM88.0325 21.5832L88.0325 7.79013L93.8453 7.79013C95.3165 7.79013 96.6105 8.07913 97.727 8.65712C98.8568 9.23512 99.7303 10.043 100.348 11.0808C100.978 12.1185 101.294 13.3205 101.294 14.6867C101.294 16.0528 100.978 17.2548 100.348 18.2926C99.7303 19.3303 98.8568 20.1382 97.727 20.7162C96.6105 21.2942 95.3165 21.5832 93.8453 21.5832L88.0325 21.5832ZM90.0029 19.8689L93.7271 19.8689C94.8699 19.8689 95.8551 19.6522 96.6827 19.2187C97.5234 18.7852 98.1737 18.1809 98.6334 17.4059C99.0932 16.6177 99.3231 15.7113 99.3231 14.6867C99.3231 13.6489 99.0932 12.7425 98.6334 11.9675C98.1737 11.1924 97.5234 10.5881 96.6827 10.1547C95.8551 9.72116 94.8699 9.50441 93.7271 9.50441L90.0029 9.50441L90.0029 19.8689ZM101.834 21.5832L108.08 7.79013L110.031 7.79013L116.297 21.5832L114.228 21.5832L108.651 8.89357L109.439 8.89357L103.863 21.5832L101.834 21.5832ZM104.494 18.1349L105.026 16.5586L112.789 16.5586L113.361 18.1349L104.494 18.1349Z" fill="black"/>
<path d="M24.1584 12.0998L23.9206 11.2889L23.2216 11.7637C23.0667 11.8688 22.896 11.9554 22.688 12.0568C22.6705 12.0653 22.6528 12.074 22.6347 12.0828C22.4483 12.1733 22.2292 12.2798 22.0187 12.4111C21.521 12.7215 21.0651 13.1729 20.7886 13.9835C20.5356 14.7253 20.4703 15.4847 20.5987 16.1253C20.7235 16.7484 21.0678 17.3876 21.7444 17.6184C22.4209 17.8491 23.0841 17.5535 23.5636 17.1366C24.0567 16.7079 24.4691 16.067 24.7221 15.3251C25.0024 14.5033 24.8941 13.8407 24.6859 13.2899C24.5989 13.0597 24.4924 12.8446 24.4038 12.6656C24.3928 12.6434 24.3821 12.6217 24.3717 12.6006C24.2711 12.3963 24.2005 12.2433 24.1584 12.0998Z" stroke="black" stroke-width="1.23152"/>
<path d="M5.90174 7.73428C3.74687 14.9467 7.84679 22.5403 15.0592 24.6952C17.4641 25.4137 20.0044 25.345 22.3734 24.6952" stroke="black" stroke-width="1.23152" stroke-linecap="round"/>
<path d="M2.50233 20.4714L1.9907 19.7989L2.78764 19.5179C2.9642 19.4556 3.13516 19.3696 3.34025 19.2623C3.35743 19.2533 3.37493 19.2441 3.39273 19.2348C3.57618 19.1385 3.79187 19.0253 4.02251 18.9338C4.5677 18.7174 5.20158 18.6182 6.0181 18.8766C6.76538 19.1131 7.41533 19.5111 7.85485 19.9945C8.2823 20.4647 8.59258 21.1211 8.37689 21.8027C8.16119 22.4842 7.52977 22.8426 6.90964 22.9812C6.27199 23.1238 5.5114 23.0754 4.76412 22.8389C3.93628 22.5769 3.46714 22.0966 3.1473 21.6021C3.01369 21.3956 2.90369 21.1822 2.81218 21.0047C2.80081 20.9826 2.78972 20.9611 2.77891 20.9402C2.67418 20.738 2.59291 20.5905 2.50233 20.4714Z" stroke="black" stroke-width="1.23152"/>
<path d="M7.07273 1.95492L7.75353 1.45433L8.02149 2.25575C8.08086 2.4333 8.16407 2.60565 8.26802 2.81245C8.27673 2.82978 8.28562 2.84743 8.29468 2.86538C8.38795 3.05037 8.49761 3.26788 8.58538 3.49998C8.79287 4.04863 8.88171 4.68405 8.61001 5.49624C8.36136 6.23956 7.95281 6.88294 7.46224 7.31452C6.98514 7.73424 6.32378 8.03377 5.64585 7.80699C4.96791 7.58021 4.61989 6.94303 4.49138 6.32071C4.35923 5.68082 4.42003 4.92112 4.66868 4.1778C4.94414 3.35434 5.43204 2.8931 5.93164 2.58137C6.14036 2.45114 6.35551 2.34464 6.5345 2.25604C6.55675 2.24503 6.57843 2.23429 6.59948 2.22382C6.80335 2.1224 6.9522 2.04355 7.07273 1.95492Z" stroke="black" stroke-width="1.23152"/>
<path d="M21.421 22.5899C16.9138 23.7298 12.3253 19.9607 10.9636 14.5766C9.60192 9.19247 11.8469 3.69511 16.3541 2.5552C20.8613 1.4153 25.4498 5.18441 26.8115 10.5685C28.1732 15.9527 25.9282 21.45 21.421 22.5899Z" stroke="black" stroke-width="1.23152"/>
<path d="M15.8508 5.15599C17.288 5.4345 18.2643 7.05489 18.6644 8.13892C19.2077 9.6109 18.6754 11.009 18.2335 12.4096C17.782 13.8409 17.4411 14.8715 17.7382 16.3898C18.0995 18.2368 19.3024 19.6118 21.1884 20.2404" stroke="black" stroke-width="1.23152" stroke-linecap="round"/>
</svg>
